# This file uses centimeters as units for non-parametric coordinates.

mtllib asset_feuille_trois.mtl
g default
v 7.638626 0.931999 2.799384
v 7.523583 0.957997 2.677663
v 7.287793 0.903510 3.125684
v 7.593591 0.906637 3.195853
v 7.514143 0.936002 3.561974
v 7.193798 0.917102 3.394833
v 7.831793 0.905636 3.173396
v 7.761451 0.931627 2.801126
v 8.147235 0.902896 3.111927
v 7.896148 0.948015 2.724399
v 7.929314 0.982999 2.560607
v 8.290194 0.916508 2.871912
v 8.431024 0.919918 3.419736
v 8.138875 0.937817 3.578023
v 7.802355 0.940182 3.598939
v 7.268556 1.018296 4.008543
v 7.579735 1.028997 4.051278
v 7.848085 1.040012 4.095264
v 8.106559 1.036308 4.080473
v 8.394369 1.041606 4.101631
v 7.500530 1.131026 4.511045
v 7.730458 1.128949 4.501179
v 7.901348 1.125859 4.486503
v 8.025021 1.121710 4.466797
v 8.196257 1.123544 4.475507
v 7.796680 1.224819 4.843887
v 7.887975 1.221004 4.831305
v 7.652163 1.195498 4.747186
v 7.966908 1.213622 4.806961
v 8.057236 1.181028 4.699464
v 7.840552 1.326368 5.104033
v 7.920055 1.337251 5.125449
v 7.964466 1.317718 5.087013
v 7.849566 1.469277 5.385248
v 7.905903 1.476216 5.398904
v 7.954240 1.468320 5.383366
v 7.638626 0.953999 2.799384
v 7.523583 0.979997 2.677663
v 7.287791 0.925510 3.125681
v 7.593591 0.928637 3.195853
v 7.193795 0.939102 3.394830
v 7.514143 0.958002 3.561974
v 7.831793 0.927636 3.173396
v 7.761451 0.953627 2.801126
v 8.147235 0.924896 3.111927
v 7.896148 0.970015 2.724399
v 8.290194 0.938508 2.871912
v 7.929314 1.004999 2.560607
v 8.138875 0.959817 3.578023
v 8.431024 0.941918 3.419736
v 7.802355 0.962182 3.598939
v 7.268556 1.040296 4.008543
v 7.579735 1.050997 4.051278
v 7.848085 1.062012 4.095264
v 8.106559 1.058308 4.080473
v 8.394369 1.063606 4.101631
v 7.730458 1.150949 4.501181
v 7.500530 1.153026 4.511045
v 7.901348 1.147860 4.486505
v 8.025021 1.143710 4.466797
v 8.196257 1.145544 4.475507
v 7.887975 1.243004 4.831305
v 7.796680 1.246819 4.843887
v 7.652162 1.217499 4.747189
v 7.966908 1.235622 4.806961
v 8.057236 1.203028 4.699464
v 7.920055 1.359251 5.125449
v 7.840552 1.348368 5.104033
v 7.964466 1.339718 5.087013
v 7.905903 1.498216 5.398904
v 7.849566 1.491277 5.385248
v 7.954240 1.490320 5.383366
vt 0.657921 0.421548
vt 0.547951 0.030629
vt 0.617204 0.017898
vt 0.645923 0.378562
vt 0.656657 0.016834
vt 0.628003 0.335928
vt 0.681515 0.377193
vt 0.675325 0.419494
vt 0.728963 0.379040
vt 0.695186 0.425524
vt 0.750959 0.403670
vt 0.463753 0.040389
vt 0.725100 0.322453
vt 0.771421 0.337194
vt 0.672119 0.325990
vt 0.742955 0.024410
vt 0.629544 0.269348
vt 0.673158 0.257474
vt 0.716497 0.254204
vt 0.765016 0.244980
vt 0.646928 0.197966
vt 0.820438 0.034245
vt 0.677103 0.196360
vt 0.699085 0.196664
vt 0.729285 0.191246
vt 0.669830 0.138182
vt 0.884083 0.042488
vt 0.859802 0.040240
vt 0.684711 0.140488
vt 0.702486 0.157027
vt 0.671399 0.082561
vt 0.921510 0.053768
vt 0.680503 0.088765
vt 0.030378 0.141169
vt 0.961784 0.070570
vt 0.037298 0.139557
vt 0.524361 0.025736
vt 0.373035 0.408458
vt 0.616977 0.014864
vt 0.547724 0.027596
vt 0.656430 0.013800
vt 0.355114 0.365759
vt 0.507418 0.026951
vt 0.408611 0.407086
vt 0.486210 0.030808
vt 0.456041 0.408936
vt 0.397119 0.033097
vt 0.463526 0.037355
vt 0.452146 0.352267
vt 0.319155 0.039397
vt 0.399200 0.355808
vt 0.356643 0.299111
vt 0.742728 0.021376
vt 0.400213 0.287229
vt 0.443510 0.283957
vt 0.226242 0.063214
vt 0.373993 0.227701
vt 0.820211 0.031211
vt 0.404130 0.226095
vt 0.426086 0.226399
vt 0.168739 0.078874
vt 0.396846 0.167930
vt 0.883855 0.039455
vt 0.859575 0.037207
vt 0.113956 0.095459
vt 0.132982 0.089517
vt 0.398392 0.112349
vt 0.921283 0.050734
vt 0.076409 0.112700
vt 0.030151 0.138135
vt 0.961557 0.067536
vt 0.037071 0.136523
vt 0.674111 0.029290
vt 0.076636 0.115733
vt 0.664154 0.027478
vt 0.653119 0.032071
vt 0.656489 0.088926
vt 0.114183 0.098492
vt 0.652821 0.138285
vt 0.133209 0.092551
vt 0.168966 0.081908
vt 0.628352 0.158863
vt 0.606685 0.201705
vt 0.226469 0.066248
vt 0.579920 0.281654
vt 0.319382 0.042430
vt 0.582836 0.361998
vt 0.397346 0.036131
vt 0.701196 0.441860
vt 0.486437 0.033842
vt 0.507645 0.029985
vt 0.524587 0.028770
vt 0.602346 0.391553
vt 0.643424 0.435907
vt 0.401080 0.059145
vt 0.407483 0.118547
vt 0.391142 0.057335
vt 0.380130 0.061921
vt 0.383510 0.118708
vt 0.411706 0.170235
vt 0.379862 0.168032
vt 0.429462 0.186767
vt 0.456245 0.220980
vt 0.355433 0.188603
vt 0.333799 0.231440
vt 0.491974 0.274728
vt 0.307063 0.311427
vt 0.498448 0.367027
vt 0.309973 0.391867
vt 0.478047 0.433612
vt 0.428317 0.471883
vt 0.422300 0.455511
vt 0.402440 0.449468
vt 0.385040 0.451526
vt 0.329475 0.421472
vt 0.370549 0.465917
vt 0.969622 0.067895
vt 0.969849 0.070928
vn 0.024109 0.998044 0.057674
vn -0.044368 0.998200 0.040364
vn -0.087728 0.994311 -0.060409
vn 0.000549 0.999976 -0.006900
vn -0.103335 0.986166 -0.129610
vn 0.002727 0.990041 -0.140754
vn -0.000981 0.999896 -0.014413
vn -0.007016 0.998827 0.047907
vn -0.002602 0.999990 0.003657
vn -0.011687 0.995248 0.096670
vn 0.112042 0.992976 -0.038006
vn 0.068466 0.996619 0.045420
vn -0.012458 0.990696 -0.135520
vn 0.103519 0.986734 -0.125059
vn -0.001361 0.989775 -0.142631
vn -0.082003 0.984094 -0.157587
vn 0.002232 0.980097 -0.198504
vn -0.001030 0.979388 -0.201988
vn -0.008055 0.980146 -0.198113
vn 0.076952 0.983172 -0.165686
vn -0.004053 0.972736 -0.231878
vn -0.076013 0.979859 -0.184656
vn -0.001673 0.972723 -0.231964
vn 0.002861 0.974028 -0.226407
vn 0.085328 0.981370 -0.172138
vn -0.002479 0.953586 -0.301110
vn -0.102511 0.963050 -0.249050
vn -0.081680 0.976810 -0.197918
vn 0.143635 0.955003 -0.259497
vn 0.127684 0.976289 -0.174805
vn -0.001025 0.910705 -0.413056
vn -0.257845 0.893308 -0.368126
vn 0.370105 0.861494 -0.347635
vn 0.000976 0.917498 -0.397738
vn -0.144208 0.905272 -0.399609
vn 0.216396 0.899057 -0.380616
vn 0.002967 -0.993991 -0.109420
vn -0.000549 -0.999976 0.006900
vn -0.068087 -0.997617 -0.011176
vn -0.074359 -0.983201 -0.166695
vn -0.087189 -0.988226 0.125725
vn -0.002726 -0.990041 0.140755
vn -0.011386 -0.993784 -0.110741
vn 0.000981 -0.999896 0.014413
vn -0.031320 -0.991499 -0.126291
vn 0.002602 -0.999990 -0.003657
vn 0.105827 -0.990380 -0.089152
vn 0.005662 -0.971336 -0.237642
vn 0.012458 -0.990696 0.135520
vn 0.121660 -0.986895 0.106002
vn 0.001361 -0.989775 0.142631
vn -0.002233 -0.980098 0.198504
vn -0.100826 -0.973372 0.205865
vn 0.001030 -0.979388 0.201987
vn 0.008055 -0.980146 0.198113
vn 0.125329 -0.970019 0.208221
vn 0.004053 -0.972736 0.231878
vn -0.079356 -0.962001 0.261260
vn 0.001673 -0.972723 0.231964
vn -0.002860 -0.974028 0.226407
vn 0.088504 -0.960071 0.265387
vn 0.002479 -0.953586 0.301110
vn -0.046789 -0.945468 0.322336
vn -0.078397 -0.940608 0.330320
vn 0.077013 -0.947600 0.310036
vn 0.100908 -0.940857 0.323429
vn 0.001025 -0.910705 0.413056
vn -0.201464 -0.889041 0.411118
vn 0.305549 -0.877696 0.369175
vn 0.001617 -0.858475 0.512852
vn -0.359462 -0.808886 0.465287
vn 0.496833 -0.746288 0.442958
s 1
g feuille_3
usemtl aiStandardSurface9SG
f 37/1/1 38/94/2 39/93/3 40/4/4
f 41/87/5 42/6/6 40/4/4 39/93/3
f 40/4/4 43/7/7 44/8/8 37/1/1
f 44/8/8 43/7/7 45/9/9 46/10/10
f 47/11/11 48/89/12 46/10/10 45/9/9
f 49/13/13 50/14/14 47/11/11 45/9/9
f 51/15/15 49/13/13 45/9/9 43/7/7
f 51/15/15 43/7/7 40/4/4 42/6/6
f 41/87/5 52/85/16 53/17/17 42/6/6
f 54/18/18 51/15/15 42/6/6 53/17/17
f 51/15/15 54/18/18 55/19/19 49/13/13
f 56/20/20 50/14/14 49/13/13 55/19/19
f 57/21/21 53/17/17 52/85/16 58/83/22
f 53/17/17 57/21/21 59/23/23 54/18/18
f 60/24/24 55/19/19 54/18/18 59/23/23
f 60/24/24 61/25/25 56/20/20 55/19/19
f 62/26/26 59/23/23 57/21/21 63/79/27
f 63/79/27 57/21/21 58/83/22 64/82/28
f 65/29/29 60/24/24 59/23/23 62/26/26
f 66/30/30 61/25/25 60/24/24 65/29/29
f 67/31/31 62/26/26 63/79/27 68/77/32
f 69/33/33 65/29/29 62/26/26 67/31/31
f 70/75/34 67/31/31 68/77/32 71/76/35
f 67/31/31 70/75/34 72/73/36 69/33/33
f 1/114/37 4/38/38 3/115/39 2/116/40
f 6/109/41 3/115/39 4/38/38 5/42/42
f 4/38/38 1/114/37 8/113/43 7/44/44
f 8/113/43 10/112/45 9/46/46 7/44/44
f 12/110/47 9/46/46 10/112/45 11/111/48
f 14/49/49 9/46/46 12/110/47 13/108/50
f 15/51/51 7/44/44 9/46/46 14/49/49
f 15/51/51 5/42/42 4/38/38 7/44/44
f 6/109/41 5/42/42 17/52/52 16/107/53
f 18/54/54 17/52/52 5/42/42 15/51/51
f 15/51/51 14/49/49 19/55/55 18/54/54
f 20/106/56 19/55/55 14/49/49 13/108/50
f 22/57/57 21/105/58 16/107/53 17/52/52
f 17/52/52 18/54/54 23/59/59 22/57/57
f 24/60/60 23/59/59 18/54/54 19/55/55
f 24/60/60 19/55/55 20/106/56 25/103/61
f 27/62/62 26/101/63 22/57/57 23/59/59
f 26/101/63 28/104/64 21/105/58 22/57/57
f 29/100/65 27/62/62 23/59/59 24/60/60
f 30/102/66 29/100/65 24/60/60 25/103/61
f 32/67/67 31/99/68 26/101/63 27/62/62
f 33/96/69 32/67/67 27/62/62 29/100/65
f 35/97/70 34/98/71 31/99/68 32/67/67
f 32/67/67 33/96/69 36/95/72 35/97/70
f 1/37/37 2/40/40 38/2/2 37/92/1
f 2/40/40 3/39/39 39/3/3 38/2/2
f 3/39/39 6/41/41 41/5/5 39/3/3
f 8/43/43 1/37/37 37/92/1 44/91/8
f 10/45/45 8/43/43 44/91/8 46/90/10
f 12/47/47 11/48/48 48/12/12 47/88/11
f 11/48/48 10/45/45 46/90/10 48/12/12
f 13/50/50 12/47/47 47/88/11 50/86/14
f 6/41/41 16/53/53 52/16/16 41/5/5
f 20/56/56 13/50/50 50/86/14 56/84/20
f 16/53/53 21/58/58 58/22/22 52/16/16
f 25/61/61 20/56/56 56/84/20 61/81/25
f 21/58/58 28/64/64 64/28/28 58/22/22
f 28/64/64 26/63/63 63/27/27 64/28/28
f 30/66/66 25/61/61 61/81/25 66/80/30
f 29/65/65 30/66/66 66/80/30 65/78/29
f 26/63/63 31/68/68 68/32/32 63/27/27
f 33/69/69 29/65/65 65/78/29 69/74/33
f 31/68/68 34/71/71 71/35/35 68/32/32
f 34/71/71 35/117/70 70/118/34 71/35/35
f 35/70/70 36/72/72 72/36/36 70/34/34
f 36/72/72 33/69/69 69/74/33 72/36/36
