# This file uses centimeters as units for non-parametric coordinates.

mtllib asset_feuille_un.mtl
g default
v 4.562303 0.869908 3.212786
v 4.367903 0.822629 3.546858
v 4.983617 0.704523 3.549185
v 4.990176 0.886477 2.860736
v 5.531384 0.814361 3.566058
v 5.445806 0.868976 3.297687
v 5.379956 0.742833 3.717130
v 5.557178 0.780763 3.725772
v 5.240949 0.703586 3.887197
v 5.014965 0.659797 3.885390
v 5.033457 0.655522 4.145014
v 5.255811 0.704098 4.081421
v 5.014771 0.700386 4.478401
v 5.381376 0.729340 4.193408
v 5.417570 0.779116 4.470838
v 5.528604 0.760782 4.214232
v 4.301649 0.788485 4.000993
v 4.413117 0.745525 4.272146
v 4.564152 0.769434 4.522502
v 4.816291 0.796909 4.806428
v 4.997950 0.776698 4.707210
v 5.193325 0.867496 4.841307
v 4.911640 0.867736 4.973533
v 5.000406 0.866770 4.936123
v 5.053227 0.887724 4.962217
v 4.931265 0.910195 5.076369
v 4.955383 0.917891 5.084878
v 4.996642 0.925337 5.083146
v 4.911700 0.979708 5.233751
v 4.934948 0.983439 5.234165
v 4.966581 0.987290 5.230209
v 4.901019 1.033921 5.375698
v 4.928757 1.034783 5.364434
v 4.949791 1.037756 5.375401
v 4.897598 1.044383 5.459820
v 4.910439 1.046360 5.467813
v 4.929550 1.048156 5.470568
v 5.294414 0.716274 3.798009
v 5.001827 0.661845 3.734601
v 4.326913 0.788468 3.797061
v 5.239367 0.701985 3.984644
v 5.026361 0.657323 4.047040
v 4.371054 0.761736 4.169827
v 4.501398 0.757840 4.419297
v 5.027811 0.659928 4.341233
v 5.301469 0.713065 4.134787
v 4.567604 0.888680 3.216541
v 4.373484 0.841832 3.547104
v 4.982447 0.723968 3.549134
v 4.989775 0.905262 2.865759
v 5.527182 0.833914 3.565876
v 5.441557 0.888186 3.300246
v 5.375755 0.762386 3.716947
v 5.552976 0.800316 3.725589
v 5.012048 0.679305 3.885263
v 5.236748 0.723139 3.887013
v 5.290213 0.735827 3.797825
v 4.999694 0.681325 3.734509
v 5.251610 0.723651 4.081236
v 5.235166 0.721539 3.984460
v 5.022724 0.676857 4.046880
v 5.029383 0.675071 4.144834
v 5.023611 0.679481 4.341047
v 5.297268 0.732619 4.134602
v 5.524401 0.780336 4.214047
v 5.377174 0.748894 4.193223
v 5.010571 0.719940 4.478215
v 5.413371 0.798669 4.470653
v 4.332498 0.807671 3.797308
v 4.307233 0.807689 4.001240
v 4.418701 0.764729 4.272391
v 4.376638 0.780940 4.170073
v 4.506981 0.777044 4.419542
v 4.993751 0.796252 4.707025
v 4.569735 0.788637 4.522746
v 4.821325 0.816132 4.806647
v 5.189124 0.887049 4.841119
v 4.910427 0.887183 4.973476
v 4.996206 0.886323 4.935935
v 5.049027 0.907277 4.962029
v 4.951183 0.937443 5.084689
v 4.927838 0.929720 5.076214
v 4.992442 0.944889 5.082956
v 4.937063 1.005878 5.234253
v 4.914934 1.002162 5.233894
v 4.966505 1.007132 5.230201
v 4.944607 1.053932 5.365133
v 4.921463 1.055337 5.376593
v 4.962260 1.054921 5.375945
v 4.929955 1.073204 5.461240
v 4.939669 1.073349 5.469101
v 4.953170 1.071856 5.471602
v 4.675760 0.763576 3.548021
v 4.664370 0.725156 3.765831
v 4.658307 0.724141 3.943192
v 4.698708 0.709530 4.108433
v 4.723287 0.700524 4.208580
v 4.764604 0.708884 4.380265
v 4.789461 0.734910 4.500452
v 4.907121 0.786804 4.756819
v 4.956023 0.867253 4.954828
v 4.943324 0.914043 5.080624
v 4.923324 0.981573 5.233958
v 4.914888 1.034352 5.370066
v 4.904019 1.045371 5.463817
v 4.934812 1.073276 5.465170
v 4.933035 1.054634 5.370863
v 4.925999 1.004020 5.234074
v 4.939510 0.933582 5.080452
v 4.953317 0.886753 4.954705
v 4.907538 0.806192 4.756836
v 4.790153 0.754289 4.500481
v 4.765296 0.728262 4.380294
v 4.724042 0.719900 4.208613
v 4.699681 0.728898 4.108476
v 4.659640 0.743497 3.943251
v 4.666096 0.744498 3.765909
v 4.677966 0.782900 3.548119
v 4.778689 0.896971 3.041150
v 4.776239 0.878193 3.036761
vt 0.902756 0.306813
vt 0.940271 0.119558
vt 0.839635 0.261876
vt 0.999517 0.262401
vt 0.845193 0.185782
vt 0.711217 0.023164
vt 0.803223 0.211015
vt 0.641143 0.005382
vt 0.761760 0.259558
vt 0.760228 0.231230
vt 0.592599 0.004312
vt 0.796795 0.260600
vt 0.711682 0.228344
vt 0.560080 0.003850
vt 0.724033 0.258631
vt 0.701095 0.258067
vt 0.655189 0.258079
vt 0.697189 0.221445
vt 0.669288 0.184819
vt 0.516755 0.003314
vt 0.623005 0.258087
vt 0.604903 0.200594
vt 0.781461 0.324434
vt 0.001649 0.110583
vt 0.042851 0.086643
vt 0.705880 0.318830
vt 0.069448 0.079023
vt 0.568917 0.257268
vt 0.627440 0.299879
vt 0.147790 0.059753
vt 0.522104 0.228852
vt 0.180282 0.059688
vt 0.512981 0.253706
vt 0.502400 0.246382
vt 0.480110 0.257322
vt 0.198364 0.060515
vt 0.477016 0.252037
vt 0.445411 0.257875
vt 0.226087 0.064322
vt 0.443383 0.253872
vt 0.414146 0.257035
vt 0.250422 0.067271
vt 0.409259 0.254199
vt 0.264381 0.068040
vt 0.390723 0.258074
vt 0.268091 0.070068
vt 0.888687 0.085319
vt 0.810769 0.042004
vt 0.584413 0.116281
vt 0.942541 0.117279
vt 0.711618 0.019998
vt 0.666956 0.008397
vt 0.641124 0.002166
vt 0.611945 0.002381
vt 0.530214 0.120259
vt 0.554101 0.118668
vt 0.592579 0.001095
vt 0.575734 0.000879
vt 0.544272 0.000365
vt 0.489019 0.122121
vt 0.504550 0.121455
vt 0.560060 0.000634
vt 0.532886 0.000224
vt 0.458129 0.120222
vt 0.492294 0.000190
vt 0.447708 0.006723
vt 0.435413 0.117961
vt 0.516735 0.000098
vt 0.000098 0.107766
vt 0.548049 0.008402
vt 0.041299 0.083826
vt 0.487199 0.014418
vt 0.067897 0.076205
vt 0.397009 0.114376
vt 0.146300 0.056926
vt 0.086783 0.071296
vt 0.379910 0.028071
vt 0.357518 0.114372
vt 0.179270 0.056722
vt 0.351038 0.035987
vt 0.332324 0.106789
vt 0.197423 0.057469
vt 0.330130 0.043765
vt 0.306106 0.103454
vt 0.225069 0.060819
vt 0.306302 0.054452
vt 0.283598 0.102263
vt 0.249500 0.062598
vt 0.283024 0.063201
vt 0.265052 0.062640
vt 0.263072 0.061191
vt 0.267363 0.064734
vt 0.586850 0.065971
vt 0.551243 0.063670
vt 0.522713 0.061782
vt 0.495917 0.067888
vt 0.479681 0.071667
vt 0.451795 0.077842
vt 0.431855 0.081323
vt 0.389222 0.099544
vt 0.354766 0.107118
vt 0.333206 0.104831
vt 0.306264 0.101566
vt 0.282792 0.099995
vt 0.264062 0.061916
vt 0.392400 0.258935
vt 0.414434 0.258989
vt 0.446759 0.259602
vt 0.482189 0.258952
vt 0.511647 0.258851
vt 0.561283 0.265405
vt 0.625222 0.278983
vt 0.653218 0.282014
vt 0.692556 0.286185
vt 0.714957 0.288731
vt 0.751323 0.292818
vt 0.789128 0.292517
vt 0.835720 0.292135
vt 0.848253 0.066426
vt 0.671150 0.083323
vt 0.951136 0.284607
vt 0.886827 0.087916
vt 0.265279 0.068491
vt 0.266177 0.068942
vt 0.679852 0.209029
vt 0.532906 0.003441
vt 0.651248 0.305949
vt 0.088335 0.074114
vt 0.740886 0.326079
vt 0.027303 0.095677
vt 0.736066 0.231079
vt 0.575753 0.004095
vt 0.831805 0.322394
vt 0.973712 0.143526
vt 0.782338 0.223828
vt 0.611965 0.005598
vt 0.387944 0.255602
vt 0.283393 0.066594
vt 0.394078 0.259797
vt 0.414722 0.260943
vt 0.306388 0.057642
vt 0.448107 0.261329
vt 0.330151 0.046981
vt 0.484267 0.260582
vt 0.351058 0.039203
vt 0.510314 0.263997
vt 0.379931 0.031287
vt 0.553650 0.273541
vt 0.447728 0.009939
vt 0.684017 0.314303
vt 0.492314 0.003406
vt 0.544292 0.003581
vt 0.802113 0.181904
vt 0.666975 0.011613
vt 0.913387 0.198893
vt 0.809679 0.044936
vt 0.849725 0.063668
vt 0.643418 0.047917
vt 0.267686 0.097757
vt 0.266995 0.098771
vt 0.488698 0.166423
vt 0.497753 0.159159
vt 0.445811 0.034793
vt 0.428559 0.044534
vt 0.025752 0.092860
vt 0.470332 0.021215
vt 0.513660 0.156847
vt 0.529584 0.157325
vt 0.975982 0.141247
vt 0.515034 0.003383
vt 0.544213 0.166134
vt 0.557621 0.180315
vt 0.266419 0.101837
vt 0.281709 0.105612
vt 0.268377 0.096743
vt 0.281985 0.097725
vt 0.306423 0.108611
vt 0.306421 0.099679
vt 0.332074 0.113536
vt 0.334088 0.102872
vt 0.352298 0.122985
vt 0.352011 0.099872
vt 0.371386 0.146241
vt 0.381411 0.084717
vt 0.432571 0.183735
vt 0.589044 0.015535
vt 0.473598 0.203060
vt 0.478335 0.179090
vt 0.556912 0.209437
vt 0.583352 0.205986
vt 0.628071 0.193145
vt 0.698474 0.118887
vt 0.999902 0.164049
vt 0.997632 0.166327
vn 0.176601 0.953222 0.245316
vn 0.176601 0.953222 0.245316
vn 0.177799 0.951986 0.249218
vn 0.178389 0.951371 0.251140
vn -0.202141 0.946482 0.251618
vn -0.202141 0.946482 0.251618
vn -0.202141 0.946482 0.251618
vn -0.202141 0.946482 0.251618
vn -0.202795 0.947936 0.245543
vn -0.202795 0.947936 0.245543
vn -0.202795 0.947936 0.245543
vn -0.202795 0.947936 0.245543
vn -0.190757 0.981253 0.027465
vn -0.190757 0.981253 0.027465
vn -0.196409 0.968233 0.154753
vn -0.196155 0.969493 0.146991
vn -0.203489 0.978818 0.022501
vn -0.198475 0.979852 0.022302
vn -0.199511 0.979641 0.022343
vn -0.203489 0.978818 0.022501
vn -0.210676 0.977377 -0.018719
vn -0.250551 0.957482 -0.143009
vn -0.243278 0.962570 -0.119481
vn -0.210676 0.977377 -0.018719
vn -0.190743 0.970237 -0.149190
vn -0.190743 0.970237 -0.149190
vn -0.190743 0.970237 -0.149190
vn -0.190743 0.970237 -0.149190
vn 0.184164 0.982809 0.012994
vn 0.189630 0.976428 0.103100
vn 0.189210 0.977787 0.090180
vn 0.184769 0.982619 0.017907
vn 0.165295 0.983878 0.068279
vn 0.161653 0.985647 0.048657
vn 0.171456 0.984132 0.045681
vn 0.175604 0.982362 0.064255
vn 0.140852 0.979043 -0.147089
vn 0.144609 0.979517 -0.140122
vn 0.148260 0.985360 -0.084168
vn 0.141060 0.982575 -0.121032
vn 0.085251 0.968821 -0.232635
vn 0.086182 0.969572 -0.229137
vn 0.092244 0.974160 -0.206165
vn 0.092244 0.974160 -0.206165
vn -0.191811 0.923907 -0.331064
vn -0.191811 0.923907 -0.331064
vn -0.191811 0.923907 -0.331064
vn -0.191811 0.923907 -0.331064
vn -0.109398 0.931539 -0.346795
vn -0.109398 0.931539 -0.346795
vn -0.112154 0.929386 -0.351658
vn -0.113092 0.928645 -0.353311
vn -0.180167 0.915560 -0.359568
vn -0.180167 0.915560 -0.359568
vn -0.180167 0.915560 -0.359569
vn -0.180167 0.915560 -0.359568
vn -0.153752 0.920213 -0.359956
vn -0.153794 0.920138 -0.360129
vn -0.153250 0.921115 -0.357857
vn -0.153250 0.921115 -0.357857
vn -0.180087 0.912221 -0.367997
vn -0.180087 0.912221 -0.367997
vn -0.180087 0.912221 -0.367997
vn -0.180087 0.912221 -0.367997
vn -0.142943 0.894844 -0.422874
vn -0.142945 0.894846 -0.422868
vn -0.142952 0.894855 -0.422847
vn -0.142952 0.894855 -0.422847
vn -0.144500 0.898277 -0.414992
vn -0.144500 0.898277 -0.414992
vn -0.144500 0.898277 -0.414992
vn -0.144500 0.898277 -0.414992
vn -0.130577 0.931860 -0.338508
vn -0.130520 0.931960 -0.338253
vn -0.130811 0.931449 -0.339546
vn -0.130811 0.931449 -0.339546
vn 0.001971 0.944883 -0.327401
vn 0.001971 0.944883 -0.327401
vn 0.001971 0.944883 -0.327401
vn 0.001971 0.944883 -0.327401
vn 0.015571 0.979522 -0.200733
vn 0.015571 0.979522 -0.200733
vn 0.016648 0.981348 -0.191520
vn 0.016539 0.981166 -0.192456
vn 0.089480 0.980964 -0.172348
vn 0.089480 0.980964 -0.172348
vn 0.089480 0.980964 -0.172348
vn 0.089480 0.980964 -0.172348
vn -0.197630 0.959907 0.198799
vn -0.197630 0.959907 0.198799
vn 0.193153 0.964389 0.180679
vn 0.193042 0.966070 0.171594
vn -0.195455 0.980462 0.022182
vn -0.195455 0.980462 0.022182
vn 0.177160 0.983150 0.045053
vn 0.180001 0.981677 0.062533
vn 0.139794 0.965997 -0.217504
vn 0.136513 0.961785 -0.237349
vn -0.263071 0.946960 -0.184555
vn -0.263071 0.946960 -0.184555
vn -0.174452 -0.954064 -0.243575
vn -0.176367 -0.952083 -0.249865
vn -0.175739 -0.952739 -0.247799
vn -0.174452 -0.954064 -0.243575
vn 0.200549 -0.947059 -0.250719
vn 0.200549 -0.947059 -0.250719
vn 0.200549 -0.947059 -0.250719
vn 0.200549 -0.947059 -0.250719
vn 0.201874 -0.947898 -0.246448
vn 0.201874 -0.947898 -0.246448
vn 0.201874 -0.947898 -0.246448
vn 0.201874 -0.947898 -0.246448
vn 0.189469 -0.981475 -0.028429
vn 0.194885 -0.969554 -0.148274
vn 0.195136 -0.968308 -0.155891
vn 0.189469 -0.981475 -0.028429
vn 0.202996 -0.978910 -0.022973
vn 0.202996 -0.978910 -0.022973
vn 0.198743 -0.979785 -0.022880
vn 0.197656 -0.980005 -0.022856
vn 0.210561 -0.977403 0.018614
vn 0.210561 -0.977403 0.018614
vn 0.243228 -0.962590 0.119420
vn 0.250512 -0.957502 0.142947
vn 0.190744 -0.970236 0.149192
vn 0.190744 -0.970236 0.149192
vn 0.190744 -0.970236 0.149192
vn 0.190744 -0.970236 0.149192
vn -0.187850 -0.976816 -0.102684
vn -0.182427 -0.983139 -0.012601
vn -0.183035 -0.982949 -0.017610
vn -0.187443 -0.978151 -0.089916
vn -0.163463 -0.984149 -0.068773
vn -0.173814 -0.982649 -0.064724
vn -0.169650 -0.984438 -0.045829
vn -0.159817 -0.985941 -0.048770
vn -0.139241 -0.979370 0.146447
vn -0.139509 -0.982869 0.120440
vn -0.146503 -0.985646 0.083895
vn -0.142860 -0.979817 0.139823
vn -0.085093 -0.969799 0.228581
vn -0.084035 -0.968912 0.232695
vn -0.090996 -0.974433 0.205425
vn -0.090996 -0.974433 0.205425
vn 0.191811 -0.923908 0.331064
vn 0.191811 -0.923907 0.331064
vn 0.191811 -0.923907 0.331064
vn 0.191811 -0.923907 0.331064
vn 0.101862 -0.932626 0.346168
vn 0.105522 -0.929671 0.352956
vn 0.104696 -0.930344 0.351424
vn 0.101862 -0.932626 0.346168
vn 0.180166 -0.915561 0.359566
vn 0.180166 -0.915561 0.359566
vn 0.180166 -0.915561 0.359566
vn 0.180166 -0.915561 0.359566
vn 0.146704 -0.921990 0.358348
vn 0.146665 -0.922062 0.358178
vn 0.146137 -0.923032 0.355888
vn 0.146137 -0.923032 0.355888
vn 0.180087 -0.912221 0.367997
vn 0.180087 -0.912221 0.367997
vn 0.180087 -0.912221 0.367997
vn 0.180087 -0.912221 0.367997
vn 0.138936 -0.899477 0.414291
vn 0.138942 -0.899486 0.414270
vn 0.138906 -0.899437 0.414388
vn 0.138906 -0.899437 0.414388
vn 0.170880 -0.894176 0.413824
vn 0.170880 -0.894176 0.413824
vn 0.170880 -0.894176 0.413824
vn 0.170880 -0.894176 0.413824
vn 0.160367 -0.916904 0.365472
vn 0.160304 -0.917057 0.365114
vn 0.160118 -0.917510 0.364056
vn 0.160118 -0.917510 0.364056
vn 0.074184 -0.933371 0.351164
vn 0.074184 -0.933371 0.351164
vn 0.074184 -0.933371 0.351164
vn 0.074184 -0.933371 0.351164
vn 0.079320 -0.988880 0.125794
vn 0.079288 -0.988943 0.125320
vn 0.079289 -0.988942 0.125329
vn 0.079320 -0.988880 0.125794
vn 0.075118 -0.989421 0.124108
vn 0.075118 -0.989421 0.124108
vn 0.075118 -0.989421 0.124108
vn 0.075118 -0.989421 0.124108
vn 0.196362 -0.959931 -0.199936
vn 0.196362 -0.959931 -0.199936
vn -0.191349 -0.964823 -0.180281
vn -0.191245 -0.966481 -0.171288
vn 0.194444 -0.980649 -0.022785
vn 0.194444 -0.980649 -0.022785
vn -0.178220 -0.981972 -0.062995
vn -0.175387 -0.983458 -0.045273
vn -0.138024 -0.966392 0.216876
vn -0.134759 -0.962091 0.237111
vn 0.263071 -0.946960 0.184555
vn 0.263071 -0.946960 0.184555
vn -0.768437 0.292770 -0.569026
vn -0.908719 0.288859 -0.301314
vn -0.893371 0.289786 -0.343385
vn -0.754706 0.292782 -0.587110
vn -0.622096 0.254605 -0.740387
vn -0.622201 0.253874 -0.740550
vn 0.957103 0.215636 -0.193532
vn 0.793116 0.228952 -0.564401
vn 0.774433 0.228339 -0.590013
vn 0.952116 0.217504 -0.214867
vn 0.679678 0.222652 -0.698902
vn 0.679678 0.222651 -0.698902
vn -0.048475 -0.001070 0.998824
vn -0.048475 -0.001070 0.998824
vn -0.048475 -0.001070 0.998824
vn -0.048475 -0.001070 0.998824
vn 0.971607 0.207757 -0.113213
vn 0.971607 0.207757 -0.113213
vn 0.831392 0.183545 0.524499
vn 0.747063 0.166543 0.643552
vn 0.741836 0.165479 0.649844
vn 0.831391 0.183545 0.524499
vn 0.964069 0.205536 -0.168301
vn 0.974973 0.208742 -0.076518
vn 0.975167 0.208809 -0.073814
vn 0.964069 0.205536 -0.168301
vn 0.644120 0.131268 -0.753577
vn 0.738183 0.152389 -0.657163
vn 0.738183 0.152389 -0.657163
vn 0.645837 0.131652 -0.752039
vn 0.135871 0.019816 -0.990528
vn 0.317258 0.059209 -0.946489
vn 0.319576 0.059715 -0.945677
vn 0.135871 0.019816 -0.990528
vn 0.881912 0.193545 0.429851
vn 0.904686 0.197939 0.377310
vn 0.904686 0.197939 0.377310
vn 0.875686 0.192331 0.442926
vn -0.953107 0.278637 -0.118100
vn -0.953097 0.278672 -0.118101
vn -0.953097 0.278672 -0.118101
vn -0.953109 0.278633 -0.118100
vn -0.880677 0.250934 0.401796
vn -0.859375 0.244136 0.449303
vn -0.856893 0.243349 0.454439
vn -0.880677 0.250934 0.401796
vn -0.841453 0.238471 0.484860
vn -0.841453 0.238470 0.484860
vn -0.776195 0.210963 0.594151
vn -0.780517 0.172941 0.600737
vn -0.812240 0.150235 0.563644
vn -0.763310 0.205736 0.612398
vn 0.821308 0.181601 0.540809
vn 0.793424 0.176022 0.582661
vn -0.917773 0.032894 0.395741
vn -0.937228 -0.008571 0.348612
vn 0.757586 0.168817 0.630527
vn 0.809003 0.179179 0.559830
vn -0.996051 -0.061199 0.064324
vn -0.999310 -0.035301 -0.011517
vn 0.947207 0.163155 0.276007
vn 0.964912 0.140754 0.221661
vn -0.971484 0.190999 -0.140493
vn -0.936572 0.310356 -0.162824
vn 0.986037 -0.054304 0.157426
vn 0.974313 -0.153313 0.164953
vn -0.798618 0.581505 -0.155117
vn -0.773127 0.618069 -0.142357
vn 0.858469 -0.475643 0.191823
vn 0.838901 -0.508193 0.194896
vn -0.683450 0.723001 -0.100826
vn -0.683450 0.723001 -0.100826
vn -0.516575 0.542713 0.662278
vn -0.517112 0.540976 0.663279
vn -0.518173 0.537519 0.665260
vn -0.516575 0.542713 0.662278
vn -0.409692 0.406502 0.816645
vn -0.159032 0.120920 0.979840
vn -0.159032 0.120920 0.979840
vn -0.226239 0.196491 0.954048
vn 0.729599 -0.652244 0.205582
vn 0.729599 -0.652244 0.205582
vn 0.654899 0.147656 0.741151
vn 0.654899 0.147656 0.741152
vn 0.977472 0.210181 0.019316
vn 0.977472 0.210181 0.019316
vn -0.880677 0.250933 0.401796
vn -0.880677 0.250933 0.401796
vn -0.191448 -0.962855 -0.190414
vn -0.187611 -0.976720 -0.104026
vn -0.181529 -0.983371 -0.005267
vn -0.171950 -0.984808 -0.024223
vn -0.166742 -0.985664 -0.025764
vn -0.156133 -0.987313 -0.028895
vn -0.152957 -0.987014 0.049077
vn -0.147166 -0.982651 0.112870
vn -0.132039 -0.958250 0.253618
vn -0.074526 -0.960192 0.269216
vn -0.074526 -0.960192 0.269216
vn 0.107990 -0.927639 0.357526
vn 0.107990 -0.927639 0.357525
vn 0.146974 -0.921489 0.359522
vn 0.146974 -0.921489 0.359522
vn 0.138980 -0.899539 0.414144
vn 0.138980 -0.899538 0.414144
vn 0.160630 -0.916258 0.366974
vn 0.160630 -0.916257 0.366975
vn 0.079274 -0.988973 0.125096
vn 0.079274 -0.988973 0.125096
vn 0.017033 0.981979 -0.188222
vn 0.017033 0.981979 -0.188222
vn -0.130165 0.932580 -0.336677
vn -0.130165 0.932580 -0.336677
vn -0.142935 0.894832 -0.422901
vn -0.142935 0.894832 -0.422901
vn -0.154045 0.919683 -0.361183
vn -0.154045 0.919683 -0.361183
vn -0.115458 0.926757 -0.357480
vn -0.115458 0.926757 -0.357480
vn 0.075361 0.960091 -0.269345
vn 0.075361 0.960091 -0.269345
vn 0.133764 0.958007 -0.253634
vn 0.149071 0.982398 -0.112568
vn 0.154877 0.986708 -0.049192
vn 0.157943 0.987022 0.029000
vn 0.168573 0.985349 0.025895
vn 0.173732 0.984491 0.024386
vn 0.189416 0.976274 0.104930
vn 0.183265 0.983047 0.005758
vn 0.193259 0.962400 0.190887
vn 0.178715 0.951028 0.252204
vn 0.178715 0.951028 0.252204
vn -0.626516 0.221411 -0.747298
vn -0.626516 0.221411 -0.747298
vn -0.176722 -0.951710 -0.251032
vn -0.176722 -0.951710 -0.251032
s 1
g feuille_1
usemtl aiStandardSurface7SG
f 47/1/1 48/133/2 118/118/3 119/121/4
s off
f 49/3/5 51/5/6 52/155/7 50/4/8
f 49/3/9 53/7/10 54/153/11 51/5/12
s 2
f 55/9/13 56/10/14 57/135/15 58/12/16
s 3
f 59/13/17 60/131/18 61/15/19 62/16/20
s 4
f 62/16/21 63/17/22 64/18/23 59/13/24
s off
f 65/19/25 66/125/26 67/21/27 68/22/28
s 5
f 116/116/29 117/117/30 69/23/31 70/129/32
s 6
f 71/150/33 114/114/34 115/115/35 72/26/36
s 7
f 73/127/37 113/113/38 114/114/39 71/150/40
s 8
f 111/111/41 112/112/42 75/29/43 76/148/44
s off
f 74/28/45 77/31/46 68/22/47 67/21/48
s 9
f 76/148/49 78/146/50 110/110/51 111/111/52
s off
f 77/31/53 74/28/54 79/33/55 80/34/56
s 10
f 109/109/57 110/110/58 78/146/59 82/144/60
s off
f 83/37/61 80/34/62 79/33/63 81/35/64
s 11
f 108/108/65 109/109/66 82/144/67 85/142/68
s off
f 86/40/69 83/37/70 81/35/71 84/38/72
s 12
f 107/107/73 108/108/74 85/142/75 88/140/76
s off
f 84/38/77 87/41/78 89/43/79 86/40/80
s 13
f 88/140/81 90/139/82 106/106/83 107/107/84
s off
f 87/41/85 91/45/86 92/137/87 89/43/88
s 2
f 58/12/16 57/135/15 53/7/89 49/3/90
s 5
f 117/117/30 118/118/91 48/133/92 69/23/31
s 3
f 61/15/19 60/131/18 56/10/93 55/9/94
s 6
f 72/26/36 115/115/35 116/116/95 70/129/96
s 7
f 75/29/97 112/112/98 113/113/38 73/127/37
s 4
f 64/18/23 63/17/22 67/21/99 66/125/100
s 14
f 1/158/101 120/120/102 93/93/103 2/186/104
s off
f 3/49/105 4/192/106 6/191/107 5/190/108
f 3/49/109 5/190/110 8/189/111 7/172/112
s 15
f 10/55/113 39/56/114 38/171/115 9/168/116
s 16
f 12/162/117 11/60/118 42/61/119 41/167/120
s 17
f 11/60/121 12/162/122 46/161/123 45/64/124
s off
f 16/187/125 15/185/126 13/67/127 14/188/128
s 18
f 94/94/129 95/95/130 17/170/131 40/70/132
s 19
f 18/166/133 43/72/134 96/96/135 97/97/136
s 20
f 44/163/137 18/166/138 97/97/139 98/98/140
s 21
f 99/99/141 100/100/142 20/184/143 19/164/144
s off
f 21/74/145 13/67/146 15/185/147 22/183/148
s 22
f 20/184/149 100/100/150 101/101/151 23/182/152
s off
f 22/183/153 25/181/154 24/78/155 21/74/156
s 23
f 101/101/157 102/102/158 26/180/159 23/182/160
s off
f 28/179/161 27/81/162 24/78/163 25/181/164
s 24
f 102/102/165 103/103/166 29/178/167 26/180/168
s off
f 31/177/169 30/84/170 27/81/171 28/179/172
s 25
f 103/103/173 104/104/174 32/176/175 29/178/176
s off
f 30/84/177 31/177/178 34/174/179 33/87/180
s 26
f 32/176/181 104/104/182 105/159/183 35/175/184
s off
f 33/87/185 34/174/186 37/173/187 36/160/188
s 15
f 39/56/114 3/49/189 7/172/190 38/171/115
s 18
f 93/93/191 94/94/129 40/70/132 2/186/192
s 16
f 42/61/119 10/55/193 9/168/194 41/167/120
s 19
f 43/72/134 17/170/195 95/95/196 96/96/135
s 20
f 19/164/197 44/163/137 98/98/140 99/99/198
s 17
f 46/161/123 14/188/199 13/67/200 45/64/124
s 27
f 1/47/201 2/50/202 48/2/203 47/122/204
f 119/119/205 120/157/206 1/47/201 47/122/204
s 28
f 5/52/207 6/51/208 52/6/209 51/154/210
f 6/51/208 4/48/211 50/156/212 52/6/209
s off
f 7/54/213 8/53/214 54/8/215 53/136/216
s 28
f 8/53/217 5/52/207 51/154/210 54/8/218
s 29
f 9/58/219 38/57/220 57/11/221 56/132/222
s 30
f 12/59/223 41/62/224 60/14/225 59/152/226
s 31
f 46/63/227 12/59/228 59/152/229 64/126/230
f 16/65/231 14/68/232 66/20/233 65/151/234
s 32
f 15/66/235 16/65/236 65/151/237 68/149/238
s 27
f 40/169/239 17/193/240 70/194/241 69/134/242
s 33
f 43/165/243 18/71/244 71/25/245 72/130/246
f 18/71/244 44/73/247 73/27/248 71/25/245
f 19/76/249 20/75/250 76/30/251 75/128/252
s 32
f 22/77/253 15/66/235 68/149/238 77/147/254
s 33
f 20/75/250 23/79/255 78/32/256 76/30/251
s 32
f 25/80/257 22/77/253 77/147/254 80/145/258
s 33
f 23/79/255 26/82/259 82/36/260 78/32/256
s 32
f 28/83/261 25/80/257 80/145/258 83/143/262
s 33
f 26/82/259 29/85/263 85/39/264 82/36/260
s 32
f 31/86/265 28/83/261 83/143/262 86/141/266
s 33
f 29/85/263 32/88/267 88/42/268 85/39/264
s 32
f 34/89/269 31/86/265 86/141/266 89/138/270
s 33
f 32/88/267 35/91/271 90/44/272 88/42/268
s 35
f 35/91/273 105/105/274 106/123/275 90/44/276
f 36/90/277 37/92/278 92/46/279 91/124/280
s 32
f 37/92/281 34/89/269 89/138/270 92/46/282
s 29
f 38/57/220 7/54/283 53/136/284 57/11/221
s 27
f 2/50/202 40/169/239 69/134/242 48/2/203
s 30
f 41/62/224 9/58/285 56/132/286 60/14/225
s 33
f 17/69/287 43/165/243 72/130/246 70/24/288
f 44/73/247 19/76/249 75/128/252 73/27/248
s 31
f 14/68/232 46/63/227 64/126/230 66/20/233
s 18
f 3/49/289 39/56/290 94/94/129 93/93/191
f 39/56/290 10/55/291 95/95/130 94/94/129
s 19
f 96/96/135 95/95/196 10/55/292 42/61/293
f 97/97/136 96/96/135 42/61/293 11/60/294
s 20
f 98/98/140 97/97/139 11/60/295 45/64/296
f 99/99/198 98/98/140 45/64/296 13/67/297
s 21
f 21/74/298 100/100/142 99/99/141 13/67/299
s 22
f 101/101/151 100/100/150 21/74/300 24/78/301
s 23
f 27/81/302 102/102/158 101/101/157 24/78/303
s 24
f 30/84/304 103/103/166 102/102/165 27/81/305
s 25
f 33/87/306 104/104/174 103/103/173 30/84/307
s 26
f 105/159/183 104/104/182 33/87/308 36/160/309
s 35
f 106/123/275 105/105/274 36/90/277 91/124/280
s 13
f 107/107/84 106/106/83 91/45/310 87/41/311
s 12
f 87/41/312 84/38/313 108/108/74 107/107/73
s 11
f 84/38/314 81/35/315 109/109/66 108/108/65
s 10
f 81/35/316 79/33/317 110/110/58 109/109/57
s 9
f 111/111/52 110/110/51 79/33/318 74/28/319
s 8
f 74/28/320 67/21/321 112/112/42 111/111/41
s 7
f 113/113/38 112/112/98 67/21/322 63/17/323
f 114/114/39 113/113/38 63/17/323 62/16/324
s 6
f 115/115/35 114/114/34 62/16/325 61/15/326
f 116/116/95 115/115/35 61/15/326 55/9/327
s 5
f 58/12/328 117/117/30 116/116/29 55/9/329
f 49/3/330 118/118/91 117/117/30 58/12/328
s 1
f 119/121/4 118/118/3 49/3/331 50/4/332
s 27
f 4/48/333 120/157/206 119/119/205 50/156/334
s 14
f 93/93/103 120/120/102 4/192/335 3/49/336
